<svg width="20" height="23" viewBox="0 0 20 23" fill="none" xmlns="http://www.w3.org/2000/svg">
<g id="Lang">
<g id="Group">
<path id="Vector" d="M1.6665 11.53C1.6665 16.3796 5.39734 20.3108 9.99984 20.3108C14.6023 20.3108 18.3332 16.3796 18.3332 11.53C18.3332 6.68041 14.6023 2.74927 9.99984 2.74927C5.39734 2.74927 1.6665 6.68041 1.6665 11.53Z" stroke="#838383" stroke-width="1.5" stroke-linecap="round" stroke-linejoin="round"/>
<path id="Vector_2" d="M10.833 2.79321C10.833 2.79321 13.333 6.26161 13.333 11.5301C13.333 16.7985 10.833 20.2669 10.833 20.2669" stroke="#838383" stroke-width="1.5" stroke-linecap="round" stroke-linejoin="round"/>
<path id="Vector_3" d="M9.1665 20.2669C9.1665 20.2669 6.6665 16.7985 6.6665 11.5301C6.6665 6.26161 9.1665 2.79321 9.1665 2.79321" stroke="#838383" stroke-width="1.5" stroke-linecap="round" stroke-linejoin="round"/>
<path id="Vector_4" d="M2.19141 14.6033H17.8081" stroke="#838383" stroke-width="1.5" stroke-linecap="round" stroke-linejoin="round"/>
<path id="Vector_5" d="M2.19141 8.45679H17.8081" stroke="#838383" stroke-width="1.5" stroke-linecap="round" stroke-linejoin="round"/>
</g>
</g>
</svg>
