<svg width="175" height="33" viewBox="0 0 175 33" fill="none" xmlns="http://www.w3.org/2000/svg">
<g id="Social">
<path id="Whatsapp" d="M151.906 26.7134L152.995 27.3842C154.833 28.5134 156.923 29.1062 159.05 29.1016C161.431 29.1016 163.759 28.3576 165.739 26.9636C167.719 25.5696 169.262 23.5882 170.173 21.2701C171.085 18.9519 171.323 16.4011 170.859 13.9402C170.394 11.4792 169.247 9.21874 167.564 7.44451C165.88 5.67028 163.734 4.46201 161.399 3.9725C159.063 3.483 156.643 3.73423 154.442 4.69444C152.242 5.65464 150.362 7.28069 149.039 9.36697C147.716 11.4532 147.01 13.906 147.01 16.4152C147.01 18.6924 147.577 20.876 148.641 22.7964L149.277 23.9446L148.294 27.7521L151.906 26.7134ZM144.006 32.2732L146.041 24.3949C144.7 21.9732 143.996 19.2189 144 16.4152C144 7.65678 150.738 0.557129 159.05 0.557129C167.362 0.557129 174.1 7.65678 174.1 16.4152C174.1 25.1736 167.362 32.2732 159.05 32.2732C156.39 32.2777 153.777 31.5361 151.48 30.1245L144.006 32.2732ZM153.618 8.97458C153.82 8.95872 154.023 8.95872 154.225 8.96824C154.306 8.97458 154.388 8.98409 154.469 8.99361C154.708 9.02215 154.971 9.17597 155.06 9.38847C155.509 10.4605 155.945 11.5404 156.367 12.6235C156.46 12.8646 156.404 13.1738 156.227 13.4751C156.104 13.6788 155.972 13.8757 155.831 14.065C155.661 14.295 155.295 14.7168 155.295 14.7168C155.295 14.7168 155.146 14.9039 155.203 15.137C155.224 15.2258 155.294 15.3543 155.357 15.4621L155.446 15.6128C155.831 16.2899 156.349 16.9765 156.981 17.6236C157.161 17.8075 157.337 17.9962 157.527 18.1722C158.231 18.8272 159.029 19.3616 159.89 19.758L159.897 19.7612C160.025 19.8199 160.09 19.8516 160.277 19.9357C160.37 19.9769 160.466 20.0134 160.564 20.0403C160.665 20.0674 160.772 20.0623 160.87 20.0256C160.968 19.9889 161.054 19.9223 161.116 19.8342C162.206 18.4434 162.305 18.353 162.314 18.353V18.3562C162.39 18.2818 162.48 18.2253 162.578 18.1906C162.676 18.1559 162.78 18.1437 162.883 18.1548C162.974 18.1611 163.065 18.1786 163.15 18.2182C163.949 18.6036 165.257 19.2046 165.257 19.2046L166.133 19.6185C166.28 19.693 166.414 19.8691 166.418 20.0387C166.424 20.145 166.434 20.3163 166.399 20.6302C166.351 21.041 166.233 21.5341 166.116 21.7926C166.036 21.969 165.929 22.1307 165.8 22.2715C165.648 22.4396 165.482 22.5924 165.303 22.7283C165.241 22.7772 165.179 22.8248 165.115 22.871C164.928 22.9961 164.736 23.1125 164.539 23.2199C164.151 23.4367 163.723 23.5612 163.285 23.5846C163.007 23.6005 162.728 23.6227 162.448 23.6068C162.436 23.6068 161.593 23.4688 161.593 23.4688C159.454 22.8758 157.475 21.7648 155.814 20.2243C155.474 19.9087 155.16 19.5693 154.838 19.2316C153.498 17.8281 152.487 16.3137 151.873 14.8833C151.558 14.1812 151.389 13.4171 151.375 12.641C151.368 11.6781 151.667 10.7406 152.223 9.97681C152.333 9.82774 152.437 9.67233 152.616 9.49314C152.807 9.30284 152.928 9.20135 153.059 9.13157C153.233 9.03965 153.423 8.98571 153.617 8.97299L153.618 8.97458Z" fill="#101010"/>
<path id="Telegram" d="M111.05 29.1016C114.243 29.1016 117.306 27.765 119.564 25.3859C121.821 23.0067 123.09 19.7798 123.09 16.4152C123.09 13.0505 121.821 9.82368 119.564 7.44451C117.306 5.06534 114.243 3.72874 111.05 3.72874C107.857 3.72874 104.794 5.06534 102.536 7.44451C100.278 9.82368 99.01 13.0505 99.01 16.4152C99.01 19.7798 100.278 23.0067 102.536 25.3859C104.794 27.765 107.857 29.1016 111.05 29.1016ZM111.05 32.2732C102.738 32.2732 96 25.1736 96 16.4152C96 7.65678 102.738 0.557129 111.05 0.557129C119.362 0.557129 126.1 7.65678 126.1 16.4152C126.1 25.1736 119.362 32.2732 111.05 32.2732ZM106.369 18.2706L102.61 17.0352C101.797 16.7736 101.793 16.1837 102.792 15.7602L117.44 9.79762C118.291 9.43288 118.772 9.89435 118.497 11.0504L116.003 23.4514C115.828 24.3347 115.324 24.5456 114.624 24.1381L110.785 21.1441L108.996 22.9646C108.812 23.1517 108.663 23.3119 108.38 23.3515C108.099 23.3927 107.867 23.3039 107.697 22.8123L106.388 18.2595L106.369 18.2722V18.2706Z" fill="#101010"/>
<path id="Instagram" d="M63.3498 11.6578C62.1523 11.6578 61.0039 12.159 60.1572 13.0512C59.3105 13.9434 58.8348 15.1534 58.8348 16.4152C58.8348 17.6769 59.3105 18.887 60.1572 19.7792C61.0039 20.6714 62.1523 21.1726 63.3498 21.1726C64.5472 21.1726 65.6957 20.6714 66.5424 19.7792C67.3891 18.887 67.8648 17.6769 67.8648 16.4152C67.8648 15.1534 67.3891 13.9434 66.5424 13.0512C65.6957 12.159 64.5472 11.6578 63.3498 11.6578ZM63.3498 8.48616C65.3455 8.48616 67.2596 9.32153 68.6708 10.8085C70.082 12.2955 70.8748 14.3123 70.8748 16.4152C70.8748 18.5181 70.082 20.5349 68.6708 22.0219C67.2596 23.5088 65.3455 24.3442 63.3498 24.3442C61.354 24.3442 59.44 23.5088 58.0288 22.0219C56.6176 20.5349 55.8248 18.5181 55.8248 16.4152C55.8248 14.3123 56.6176 12.2955 58.0288 10.8085C59.44 9.32153 61.354 8.48616 63.3498 8.48616ZM73.1323 8.0897C73.1323 8.61543 72.9341 9.11963 72.5813 9.49137C72.2285 9.86312 71.75 10.072 71.251 10.072C70.7521 10.072 70.2736 9.86312 69.9208 9.49137C69.568 9.11963 69.3698 8.61543 69.3698 8.0897C69.3698 7.56398 69.568 7.05978 69.9208 6.68804C70.2736 6.31629 70.7521 6.10745 71.251 6.10745C71.75 6.10745 72.2285 6.31629 72.5813 6.68804C72.9341 7.05978 73.1323 7.56398 73.1323 8.0897ZM63.3498 3.72874C59.6264 3.72874 59.0184 3.73984 57.2862 3.82072C56.1062 3.87939 55.3146 4.0459 54.5802 4.3472C53.927 4.61362 53.4559 4.93237 52.9548 5.46203C52.4837 5.94157 52.1215 6.52703 51.8952 7.17469C51.6093 7.95174 51.4513 8.78429 51.3971 10.026C51.3188 11.7767 51.3098 12.3888 51.3098 16.4152C51.3098 20.3385 51.3203 20.9791 51.3971 22.8044C51.4528 24.0461 51.6108 24.8818 51.8952 25.6541C52.1511 26.3439 52.4521 26.8403 52.9518 27.3668C53.4589 27.8996 53.93 28.2183 54.5772 28.4816C55.3206 28.7845 56.1123 28.9526 57.2862 29.0096C58.9477 29.0921 59.5286 29.1016 63.3498 29.1016C67.0732 29.1016 67.6812 29.0905 69.4134 29.0096C70.5903 28.951 71.3835 28.7845 72.1179 28.4847C72.7696 28.2167 73.2437 27.898 73.7433 27.3715C74.2505 26.8371 74.553 26.3407 74.8028 25.6588C75.0888 24.877 75.2483 24.0413 75.3025 22.8044C75.3808 21.0537 75.3898 20.4415 75.3898 16.4152C75.3898 12.4919 75.3792 11.8512 75.3025 10.026C75.2468 8.78587 75.0888 7.94857 74.8028 7.17469C74.576 6.52769 74.2145 5.94246 73.7448 5.46203C73.2899 4.96542 72.7342 4.58375 72.1194 4.34562C71.382 4.04431 70.5903 3.87781 69.4134 3.82072C67.7519 3.73825 67.171 3.72874 63.3498 3.72874ZM63.3498 0.557129C67.4389 0.557129 67.9491 0.572987 69.5534 0.652277C71.1562 0.731567 72.2473 0.996397 73.2075 1.38968C74.2008 1.79247 75.0376 2.33799 75.8744 3.21811C76.6397 4.01085 77.2318 4.96977 77.6097 6.02816C77.9814 7.03832 78.2342 8.18961 78.3095 9.87849C78.3802 11.569 78.3998 12.1065 78.3998 16.4152C78.3998 20.7238 78.3847 21.2614 78.3095 22.9519C78.2342 24.6408 77.9814 25.7905 77.6097 26.8022C77.2329 27.8612 76.6406 28.8203 75.8744 29.6123C75.1218 30.4184 74.2118 31.0423 73.2075 31.4407C72.2488 31.8324 71.1562 32.0988 69.5534 32.1781C67.9491 32.2526 67.4389 32.2732 63.3498 32.2732C59.2607 32.2732 58.7505 32.2574 57.1462 32.1781C55.5434 32.0988 54.4522 31.8324 53.4921 31.4407C52.4872 31.0434 51.577 30.4193 50.8252 29.6123C50.0598 28.8196 49.4676 27.8607 49.0899 26.8022C48.7167 25.792 48.4654 24.6408 48.3901 22.9519C48.3194 21.2614 48.2998 20.7238 48.2998 16.4152C48.2998 12.1065 48.3149 11.569 48.3901 9.87849C48.4654 8.18802 48.7167 7.0399 49.0899 6.02816C49.4665 4.96912 50.0589 4.00994 50.8252 3.21811C51.5772 2.4113 52.4874 1.78728 53.4921 1.38968C54.4522 0.996397 55.5419 0.731567 57.1462 0.652277C58.7505 0.577744 59.2607 0.557129 63.3498 0.557129Z" fill="#101010"/>
<path id="VK" d="M0 8.98613C0 7.89228 0.575032 7.30246 1.7251 7.21667L6.15681 7.24884C6.45424 7.24884 6.65253 7.4097 6.75167 7.73142C7.20773 9.34002 7.71832 10.7288 8.28344 11.8977C8.84856 13.0666 9.58718 14.4124 10.4993 15.9353C10.5786 16.1283 10.7075 16.2248 10.886 16.2248C11.0248 16.2248 11.1338 16.1497 11.2131 15.9996L11.3024 15.6457L11.3321 10.08C11.3321 9.69391 11.2478 9.43653 11.0793 9.30784C10.9107 9.17916 10.5984 9.08264 10.1424 9.0183C9.78547 8.95395 9.60701 8.71803 9.60701 8.31052C9.60701 8.22472 9.61692 8.16038 9.63675 8.11748C10.0532 6.72337 11.2429 6.02631 13.2059 6.02631L14.8715 5.99414C15.625 5.99414 16.2496 6.1979 16.7453 6.60541C17.2411 7.01292 17.4889 7.65635 17.4889 8.53572V15.8387C17.6277 15.946 17.7566 15.9996 17.8756 15.9996C18.173 15.9996 18.4308 15.8066 18.6489 15.4205C20.8301 12.1175 22.0099 9.90839 22.1883 8.79309C22.1883 8.77165 22.2082 8.71803 22.2478 8.63224C22.3866 8.31052 22.6146 8.03169 22.9319 7.79577C23.2492 7.55984 23.5268 7.39898 23.7647 7.31319C23.844 7.27029 23.9332 7.24884 24.0324 7.24884H28.6426L28.94 7.28102C29.3366 7.28102 29.6439 7.48477 29.862 7.89228C29.9413 8.02097 29.9959 8.16038 30.0256 8.31052C30.0554 8.46065 30.0752 8.61079 30.0851 8.76092C30.095 8.91106 30.1 8.99685 30.1 9.0183V9.2435C29.9612 10.1229 29.6092 11.0612 29.0441 12.0585C28.479 13.0559 27.7602 14.1336 26.8877 15.2918C26.0153 16.45 25.47 17.2114 25.2519 17.576C25.0734 17.8334 24.9842 18.0693 24.9842 18.2838C24.9842 18.4554 25.0635 18.6484 25.2221 18.8629L29.5646 24.7825C29.8025 25.1257 29.9215 25.501 29.9215 25.9085C29.9215 26.4018 29.7431 26.8093 29.3861 27.1311C29.0292 27.4528 28.6029 27.6351 28.1072 27.678L27.6016 27.7102H23.0806C23.0608 27.7102 23.0211 27.7155 22.9616 27.7262C22.9022 27.737 22.8625 27.7423 22.8427 27.7423C22.4064 27.7423 21.9999 27.5386 21.6232 27.1311C21.4844 26.9595 20.5525 25.6941 18.8274 23.3348C18.7282 23.1847 18.5894 23.0452 18.411 22.9166C18.3316 23.2597 18.2275 23.753 18.0987 24.3965C17.9698 25.0399 17.8756 25.501 17.8161 25.7798L17.7269 26.3268C17.5286 27.0774 17.1122 27.5279 16.4777 27.678L16.0613 27.7102H13.1464C11.5006 27.7102 9.85982 26.8951 8.22396 25.2651C6.58809 23.6351 5.11581 21.5278 3.80711 18.9433C2.49842 16.3588 1.27895 13.3508 0.148715 9.91911C0.0495718 9.64029 0 9.32929 0 8.98613ZM17.8756 17.3186C17.4592 17.3186 17.0824 17.1953 16.7453 16.9487C16.4083 16.702 16.2397 16.3642 16.2397 15.9353V8.53572C16.2397 8.10676 16.1406 7.80113 15.9423 7.61882C15.744 7.43651 15.397 7.34536 14.9013 7.34536L13.2059 7.4097C12.3533 7.4097 11.7089 7.57056 11.2726 7.89228C12.1451 8.34269 12.5813 9.07192 12.5813 10.08V15.7422C12.5417 16.2784 12.3434 16.7235 11.9865 17.0774C11.6295 17.4312 11.233 17.6082 10.7967 17.6082C10.2019 17.6082 9.74581 17.2972 9.42855 16.6752C7.88191 14.1444 6.73185 11.7422 5.97835 9.4687L5.71067 8.63224L1.75484 8.60006C1.49707 8.60006 1.35331 8.61615 1.32357 8.64832C1.29382 8.68049 1.27895 8.77165 1.27895 8.92178C1.27895 9.11481 1.29878 9.31857 1.33844 9.53305L1.96304 11.3347C3.62865 15.9889 5.43802 19.6565 7.39115 22.3375C9.34428 25.0184 11.2627 26.3589 13.1464 26.3589H16.1207C16.2397 26.3589 16.3289 26.3214 16.3884 26.2463C16.4479 26.1713 16.4975 26.0265 16.5371 25.812L16.5966 25.4903L17.1617 22.6592C17.3204 22.2731 17.4592 22.0157 17.5781 21.8871C17.7963 21.6511 18.054 21.5332 18.3515 21.5332C18.8274 21.5332 19.3132 21.8442 19.8089 22.4661L22.337 25.9407C22.4957 26.2195 22.6642 26.3589 22.8427 26.3589H27.7503C28.3451 26.3589 28.6426 26.1981 28.6426 25.8764C28.6426 25.7691 28.6128 25.6619 28.5533 25.5546L24.2406 19.7315C23.9035 19.2811 23.735 18.7985 23.735 18.2838C23.735 17.769 23.8936 17.2757 24.2108 16.8039C24.4686 16.3749 24.9693 15.6618 25.7129 14.6645C26.4565 13.6671 27.1058 12.7341 27.661 11.8655C28.2162 10.9969 28.5831 10.2087 28.7615 9.50088L28.8508 9.08264C28.8309 9.03975 28.821 8.97004 28.821 8.87352C28.821 8.77701 28.8111 8.69658 28.7913 8.63224H24.1216C23.8242 8.76092 23.5862 8.95395 23.4078 9.21133L23.2293 9.82259C22.7336 11.3025 21.4348 13.5867 19.333 16.6752C18.9166 17.1042 18.4308 17.3186 17.8756 17.3186Z" fill="#101010"/>
</g>
</svg>
